HIERARCHY
ROOT pelvis
{
  OFFSET 0 100 0
  CHANNELS 6 Xposition Yposition Zposition Zrotation Xrotation Yrotation
  JOINT pelvis_right_femur
  {
    OFFSET -10.78128 -3.44521 -0.5502486
    CHANNELS 3 Zrotation Xrotation Yrotation
    JOINT right_femur_tibia
    {
      OFFSET -0.8047443 -44.0398 -0.1307829
      CHANNELS 3 Zrotation Xrotation Yrotation
      JOINT right_tibia_foot
      {
        OFFSET 3.006224 -47.83518 -5
        CHANNELS 3 Zrotation Xrotation Yrotation
        End Site
        {
          OFFSET 0 -5 15
        }
      }
    }
  }
  JOINT pelvis_left_femur
  {
    OFFSET 10.78128 -3.44521 -0.5502486
    CHANNELS 3 Zrotation Xrotation Yrotation
    JOINT left_femur_tibia
    {
      OFFSET 0.8047443 -44.0398 -0.1307829
      CHANNELS 3 Zrotation Xrotation Yrotation
      JOINT left_tibia_foot
      {
        OFFSET -4.370144 -48.10324 -4.275266
        CHANNELS 3 Zrotation Xrotation Yrotation
        End Site
        {
          OFFSET 0 -5 15
        }
      }
    }
  }
  JOINT pelvis_spine1
  {
    OFFSET 0 6.468898 -3.129235
    CHANNELS 3 Zrotation Xrotation Yrotation
    JOINT spine1
    {
      OFFSET 0 23.15396 4.99043
      CHANNELS 3 Zrotation Xrotation Yrotation
      JOINT spine2
      {
        OFFSET 0 20.79997 -5.064912
        CHANNELS 3 Zrotation Xrotation Yrotation
        JOINT neck
        {
          OFFSET 0 14.38658 9.616178
          CHANNELS 3 Zrotation Xrotation Yrotation
          End Site
          {
            OFFSET 0 20 0
          }
        }
      }
      JOINT right_manubrium
      {
        OFFSET -5.722621 16.35077 3.967754
        CHANNELS 3 Zrotation Xrotation Yrotation
        JOINT right_clavicle
        {
          OFFSET -13.16364 1.694482 -4.693211
          CHANNELS 3 Zrotation Xrotation Yrotation
          JOINT right_humerus
          {
            OFFSET -28.5034 -0.3100689 -2.792744
            CHANNELS 3 Zrotation Xrotation Yrotation
            JOINT right_radius
            {
              OFFSET -25.15693 0.02248979 -1.271978
              CHANNELS 3 Zrotation Xrotation Yrotation
              End Site
              {
                OFFSET -15 0 0
              }
            }
          }
        }
      }
      JOINT left_manubrium
      {
        OFFSET 5.722621 16.35077 3.967754
        CHANNELS 3 Zrotation Xrotation Yrotation
        JOINT left_clavicle
        {
          OFFSET 13.16364 1.694482 -4.693211
          CHANNELS 3 Zrotation Xrotation Yrotation
          JOINT left_humerus
          {
            OFFSET 29.39168 -1.063119 -2.237045
            CHANNELS 3 Zrotation Xrotation Yrotation
            JOINT left_radius
            {
              OFFSET 24.59957 -0.9528479 0.9047498
              CHANNELS 3 Zrotation Xrotation Yrotation
              End Site
              {
                OFFSET 15 -0 -0
              }
            }
          }
        }
      }
    }
  }
}
MOTION
Frames: 17
Frame Time: 0.0416666666667
-2339.187 116.527 923.8806 -6.082506 10.23297 -155.7302 3.747549 -7.320054 -10.35563 -0 5.441386 -0 -13.89079 14.77102 3.894711 -2.297618 -0.7784476 -1.290423 -0 22.65054 -0 2.337482 -10.24159 9.640795 2.006717 -3.483165 6.747596 -2.263399 19.63303 -5.866936 0.8186201 20.86731 4.121104 3.641882 -15.72646 2.380231 -6.301716 -28.97837 13.21353 98.92317 9.259595 -18.66161 -0 0 17.20198 -34.89475 14.34799 17.80393 4.16381 -30.8387 -14.67557 -84.42901 6.424326 23.14645 0 0 -36.33272 8.326678 15.11559 3.070789
-2342.885 116.5009 917.5009 -6.0225 10.26815 -156.0674 3.747549 -7.320054 -10.35563 -0 5.441386 -0 -13.89079 14.77102 3.894711 -2.297618 -0.7784476 -1.290423 -0 22.65054 -0 2.337482 -10.24159 9.640795 2.006717 -3.483165 6.747596 -2.263399 19.63303 -5.866936 0.8186201 20.86731 4.121104 3.641882 -15.72646 2.380231 -6.301716 -28.97837 13.21353 98.92317 9.259595 -18.66161 -0 0 17.20198 -34.89475 14.34799 17.80393 4.16381 -30.8387 -14.67557 -84.42901 6.424326 23.14645 0 0 -36.33272 8.326678 15.11559 3.070789
-2346.547 116.4748 911.0998 -5.962278 10.30299 -156.4047 3.747549 -7.320054 -10.35563 -0 5.441386 -0 -13.89079 14.77102 3.894711 -2.297618 -0.7784476 -1.290423 -0 22.65054 -0 2.337482 -10.24159 9.640795 2.006717 -3.483165 6.747596 -2.263399 19.63303 -5.866936 0.8186201 20.86731 4.121104 3.641882 -15.72646 2.380231 -6.301716 -28.97837 13.21353 98.92317 9.259595 -18.66161 -0 0 17.20198 -34.89475 14.34799 17.80393 4.16381 -30.8387 -14.67557 -84.42901 6.424326 23.14645 0 0 -36.33272 8.326678 15.11559 3.070789
-2350.171 116.4488 904.6774 -5.901842 10.33747 -156.7421 3.747549 -7.320054 -10.35563 -0 5.441386 -0 -13.89079 14.77102 3.894711 -2.297618 -0.7784476 -1.290423 -0 22.65054 -0 2.337482 -10.24159 9.640795 2.006717 -3.483165 6.747596 -2.263399 19.63303 -5.866936 0.8186201 20.86731 4.121104 3.641882 -15.72646 2.380231 -6.301716 -28.97837 13.21353 98.92317 9.259595 -18.66161 -0 0 17.20198 -34.89475 14.34799 17.80393 4.16381 -30.8387 -14.67557 -84.42901 6.424326 23.14645 0 0 -36.33272 8.326678 15.11559 3.070789
-2353.758 116.4227 898.2341 -5.841194 10.37161 -157.0795 3.747549 -7.320054 -10.35563 -0 5.441386 -0 -13.89079 14.77102 3.894711 -2.297618 -0.7784476 -1.290423 -0 22.65054 -0 2.337482 -10.24159 9.640795 2.006717 -3.483165 6.747596 -2.263399 19.63303 -5.866936 0.8186201 20.86731 4.121104 3.641882 -15.72646 2.380231 -6.301716 -28.97837 13.21353 98.92317 9.259595 -18.66161 -0 0 17.20198 -34.89475 14.34799 17.80393 4.16381 -30.8387 -14.67557 -84.42901 6.424326 23.14645 0 0 -36.33272 8.326678 15.11559 3.070789
-2357.307 116.3966 891.7699 -5.780336 10.40539 -157.417 3.747549 -7.320054 -10.35563 -0 5.441386 -0 -13.89079 14.77102 3.894711 -2.297618 -0.7784476 -1.290423 -0 22.65054 -0 2.337482 -10.24159 9.640795 2.006717 -3.483165 6.747596 -2.263399 19.63303 -5.866936 0.8186201 20.86731 4.121104 3.641882 -15.72646 2.380231 -6.301716 -28.97837 13.21353 98.92317 9.259595 -18.66161 -0 0 17.20198 -34.89475 14.34799 17.80393 4.16381 -30.8387 -14.67557 -84.42901 6.424326 23.14645 0 0 -36.33272 8.326678 15.11559 3.070789
-2360.818 116.3705 885.2852 -5.71927 10.43882 -157.7546 3.747549 -7.320054 -10.35563 -0 5.441386 -0 -13.89079 14.77102 3.894711 -2.297618 -0.7784476 -1.290423 -0 22.65054 -0 2.337482 -10.24159 9.640795 2.006717 -3.483165 6.747596 -2.263399 19.63303 -5.866936 0.8186201 20.86731 4.121104 3.641882 -15.72646 2.380231 -6.301716 -28.97837 13.21353 98.92317 9.259595 -18.66161 -0 0 17.20198 -34.89475 14.34799 17.80393 4.16381 -30.8387 -14.67557 -84.42901 6.424326 23.14645 0 0 -36.33272 8.326678 15.11559 3.070789
-2364.292 116.3444 878.7802 -5.657999 10.47189 -158.0922 3.747549 -7.320054 -10.35563 -0 5.441386 -0 -13.89079 14.77102 3.894711 -2.297618 -0.7784476 -1.290423 -0 22.65054 -0 2.337482 -10.24159 9.640795 2.006717 -3.483165 6.747596 -2.263399 19.63303 -5.866936 0.8186201 20.86731 4.121104 3.641882 -15.72646 2.380231 -6.301716 -28.97837 13.21353 98.92317 9.259595 -18.66161 -0 0 17.20198 -34.89475 14.34799 17.80393 4.16381 -30.8387 -14.67557 -84.42901 6.424326 23.14645 0 0 -36.33272 8.326678 15.11559 3.070789
-2367.727 116.3183 872.2551 -5.596524 10.50461 -158.4299 3.747549 -7.320054 -10.35563 -0 5.441386 -0 -13.89079 14.77102 3.894711 -2.297618 -0.7784476 -1.290423 -0 22.65054 -0 2.337482 -10.24159 9.640795 2.006717 -3.483165 6.747596 -2.263399 19.63303 -5.866936 0.8186201 20.86731 4.121104 3.641882 -15.72646 2.380231 -6.301716 -28.97837 13.21353 98.92317 9.259595 -18.66161 -0 0 17.20198 -34.89475 14.34799 17.80393 4.16381 -30.8387 -14.67557 -84.42901 6.424326 23.14645 0 0 -36.33272 8.326678 15.11559 3.070789
-2371.125 116.2923 865.71 -5.534847 10.53697 -158.7677 3.747549 -7.320054 -10.35563 -0 5.441386 -0 -13.89079 14.77102 3.894711 -2.297618 -0.7784476 -1.290423 -0 22.65054 -0 2.337482 -10.24159 9.640795 2.006717 -3.483165 6.747596 -2.263399 19.63303 -5.866936 0.8186201 20.86731 4.121104 3.641882 -15.72646 2.380231 -6.301716 -28.97837 13.21353 98.92317 9.259595 -18.66161 -0 0 17.20198 -34.89475 14.34799 17.80393 4.16381 -30.8387 -14.67557 -84.42901 6.424326 23.14645 0 0 -36.33272 8.326678 15.11559 3.070789
-2374.484 116.2662 859.1453 -5.472971 10.56898 -159.1055 3.747549 -7.320054 -10.35563 -0 5.441386 -0 -13.89079 14.77102 3.894711 -2.297618 -0.7784476 -1.290423 -0 22.65054 -0 2.337482 -10.24159 9.640795 2.006717 -3.483165 6.747596 -2.263399 19.63303 -5.866936 0.8186201 20.86731 4.121104 3.641882 -15.72646 2.380231 -6.301716 -28.97837 13.21353 98.92317 9.259595 -18.66161 -0 0 17.20198 -34.89475 14.34799 17.80393 4.16381 -30.8387 -14.67557 -84.42901 6.424326 23.14645 0 0 -36.33272 8.326678 15.11559 3.070789
-2377.805 116.2401 852.5611 -5.410897 10.60062 -159.4435 3.747549 -7.320054 -10.35563 -0 5.441386 -0 -13.89079 14.77102 3.894711 -2.297618 -0.7784476 -1.290423 -0 22.65054 -0 2.337482 -10.24159 9.640795 2.006717 -3.483165 6.747596 -2.263399 19.63303 -5.866936 0.8186201 20.86731 4.121104 3.641882 -15.72646 2.380231 -6.301716 -28.97837 13.21353 98.92317 9.259595 -18.66161 -0 0 17.20198 -34.89475 14.34799 17.80393 4.16381 -30.8387 -14.67557 -84.42901 6.424326 23.14645 0 0 -36.33272 8.326678 15.11559 3.070789
-2381.088 116.214 845.9577 -5.348628 10.63191 -159.7815 3.747549 -7.320054 -10.35563 -0 5.441386 -0 -13.89079 14.77102 3.894711 -2.297618 -0.7784476 -1.290423 -0 22.65054 -0 2.337482 -10.24159 9.640795 2.006717 -3.483165 6.747596 -2.263399 19.63303 -5.866936 0.8186201 20.86731 4.121104 3.641882 -15.72646 2.380231 -6.301716 -28.97837 13.21353 98.92317 9.259595 -18.66161 -0 0 17.20198 -34.89475 14.34799 17.80393 4.16381 -30.8387 -14.67557 -84.42901 6.424326 23.14645 0 0 -36.33272 8.326678 15.11559 3.070789
-2384.332 116.1879 839.3353 -5.286167 10.66283 -160.1195 3.747549 -7.320054 -10.35563 -0 5.441386 -0 -13.89079 14.77102 3.894711 -2.297618 -0.7784476 -1.290423 -0 22.65054 -0 2.337482 -10.24159 9.640795 2.006717 -3.483165 6.747596 -2.263399 19.63303 -5.866936 0.8186201 20.86731 4.121104 3.641882 -15.72646 2.380231 -6.301716 -28.97837 13.21353 98.92317 9.259595 -18.66161 -0 0 17.20198 -34.89475 14.34799 17.80393 4.16381 -30.8387 -14.67557 -84.42901 6.424326 23.14645 0 0 -36.33272 8.326678 15.11559 3.070789
-2387.538 116.1618 832.6941 -5.223514 10.69339 -160.4576 3.747549 -7.320054 -10.35563 -0 5.441386 -0 -13.89079 14.77102 3.894711 -2.297618 -0.7784476 -1.290423 -0 22.65054 -0 2.337482 -10.24159 9.640795 2.006717 -3.483165 6.747596 -2.263399 19.63303 -5.866936 0.8186201 20.86731 4.121104 3.641882 -15.72646 2.380231 -6.301716 -28.97837 13.21353 98.92317 9.259595 -18.66161 -0 0 17.20198 -34.89475 14.34799 17.80393 4.16381 -30.8387 -14.67557 -84.42901 6.424326 23.14645 0 0 -36.33272 8.326678 15.11559 3.070789
-2390.704 116.1358 826.0343 -5.160672 10.72359 -160.7958 3.747549 -7.320054 -10.35563 -0 5.441386 -0 -13.89079 14.77102 3.894711 -2.297618 -0.7784476 -1.290423 -0 22.65054 -0 2.337482 -10.24159 9.640795 2.006717 -3.483165 6.747596 -2.263399 19.63303 -5.866936 0.8186201 20.86731 4.121104 3.641882 -15.72646 2.380231 -6.301716 -28.97837 13.21353 98.92317 9.259595 -18.66161 -0 0 17.20198 -34.89475 14.34799 17.80393 4.16381 -30.8387 -14.67557 -84.42901 6.424326 23.14645 0 0 -36.33272 8.326678 15.11559 3.070789
-2393.832 116.1097 819.3563 -5.097644 10.75342 -161.1341 3.747549 -7.320054 -10.35563 -0 5.441386 -0 -13.89079 14.77102 3.894711 -2.297618 -0.7784476 -1.290423 -0 22.65054 -0 2.337482 -10.24159 9.640795 2.006717 -3.483165 6.747596 -2.263399 19.63303 -5.866936 0.8186201 20.86731 4.121104 3.641882 -15.72646 2.380231 -6.301716 -28.97837 13.21353 98.92317 9.259595 -18.66161 -0 0 17.20198 -34.89475 14.34799 17.80393 4.16381 -30.8387 -14.67557 -84.42901 6.424326 23.14645 0 0 -36.33272 8.326678 15.11559 3.070789
